<svg xmlns="http://www.w3.org/2000/svg" width="512" height="512" viewBox="0 0 512 512" version="1.1">
	<path d="M 255.763 50.971 C 242 53.468, 225.135 61.942, 213.288 72.310 C 209.021 76.044, 141.992 151.730, 142.017 152.785 C 142.051 154.248, 160.571 164.544, 167.116 166.739 C 176.793 169.985, 189.470 170.694, 199.932 168.574 C 208.573 166.823, 215.392 163.838, 227.563 156.477 C 238.632 149.784, 242.778 148.639, 256 148.628 C 269.522 148.617, 272.548 149.575, 288.303 158.853 C 300.679 166.143, 308.238 168.776, 319.204 169.619 C 334.437 170.790, 345.964 167.780, 360.975 158.713 C 365.637 155.897, 371.835 152.625, 374.748 151.440 C 377.662 150.256, 380.312 149.022, 380.636 148.697 C 381.900 147.433, 332.568 88.581, 318.002 73.975 C 302.829 58.762, 286.904 51.029, 269.500 50.424 C 264.550 50.252, 258.369 50.498, 255.763 50.971 M 418.239 180.335 C 409.285 183.582, 403.716 191.634, 404.202 200.628 L 404.500 206.147 409.795 207.935 C 412.707 208.919, 416.757 211.059, 418.795 212.691 C 423.415 216.391, 427.857 224.999, 428.665 231.816 L 429.279 237 453.779 237 L 478.280 237 477.725 231.628 C 476.447 219.245, 466.317 208.963, 452.980 206.511 C 449.563 205.883, 449.471 205.747, 449.841 201.867 C 450.610 193.807, 444.799 184.662, 436.500 180.871 C 431.934 178.785, 423.217 178.529, 418.239 180.335 M 48.500 213.867 C 46.300 214.870, 42.973 216.979, 41.107 218.555 C 37.307 221.762, 33.025 230.063, 33.010 234.250 L 33 237 78.500 237 L 124 237 124 233.968 C 124 226.559, 117.950 218.389, 109.500 214.387 C 100.881 210.306, 89.140 211.605, 81.420 217.494 C 78.478 219.737, 78.086 219.808, 76.851 218.315 C 72.092 212.562, 56.671 210.143, 48.500 213.867 M 157 283.970 C 146.853 285.009, 138.071 287.380, 128.500 291.663 C 101.272 303.847, 94.257 305.538, 74.500 304.678 C 58.774 303.993, 53.895 302.722, 35.640 294.551 C 22.148 288.513, 14.073 285.594, 13.219 286.448 C 13.002 286.664, 13.335 289.297, 13.958 292.299 C 15.068 297.645, 15.199 297.800, 20.296 299.809 C 23.158 300.937, 30.001 303.906, 35.502 306.407 C 41.002 308.908, 49.073 311.868, 53.435 312.983 C 68.867 316.930, 91.879 316.640, 107 312.308 C 110.025 311.442, 118.930 307.857, 126.788 304.343 C 145.837 295.824, 151.040 294.627, 169 294.627 C 186.992 294.627, 192.169 295.824, 211.352 304.417 C 219.288 307.972, 228.193 311.566, 231.140 312.403 C 246.075 316.646, 269.261 316.898, 284.565 312.983 C 288.927 311.868, 296.998 308.884, 302.498 306.354 C 318.225 299.120, 327.317 296.125, 337.272 294.901 C 354.780 292.747, 372.084 295.369, 387.500 302.512 C 411.813 313.776, 418.657 315.484, 439.500 315.484 C 459.651 315.484, 470.229 312.971, 488.142 303.928 C 492.755 301.600, 493.939 300.486, 494.414 298.029 C 494.736 296.363, 495.261 293.650, 495.579 292 C 495.898 290.350, 495.849 289, 495.471 289 C 495.093 289, 488.870 291.684, 481.642 294.964 C 462.748 303.538, 458.649 304.462, 439.500 304.462 C 420.876 304.462, 415.890 303.421, 400.500 296.316 C 376.375 285.178, 359.724 281.825, 339.066 283.945 C 325.398 285.348, 318.647 287.207, 305.500 293.189 C 284.153 302.901, 275.956 304.979, 258.934 304.992 C 242.783 305.005, 234.646 302.995, 215.500 294.261 C 208.900 291.251, 199.450 287.763, 194.500 286.511 C 184.266 283.921, 168.137 282.829, 157 283.970" stroke="none" fill="black" fill-rule="evenodd"/>
</svg>